<?xml version="1.0" encoding="UTF-8"?>
<svg version="1.1" xmlns="http://www.w3.org/2000/svg" width="481" height="519">
<path d="M0 0 C6.74388325 0.94671498 10.72363056 4.99376323 14.7421875 10.30078125 C21.01008353 20.07682804 23.26305408 30.45403826 22 42 C20.53640768 48.09112684 18.57959996 53.81380793 15 59 C14.34 59 13.68 59 13 59 C13 59.66 13 60.32 13 61 C0.04239727 70.86007361 -16.29708782 77.17584232 -31.73828125 81.9296875 C-34.59467329 82.86699459 -37.28496376 83.98303482 -40.03344727 85.19238281 C-44.90797399 87.19423686 -49.98751528 88.6850504 -54.99804688 90.30664062 C-60.15609953 91.99589346 -65.19173568 93.84890168 -70.21606445 95.8996582 C-73.50450394 97.1994036 -76.82286548 98.39526748 -80.15234375 99.5859375 C-80.78409012 99.81263626 -81.41583649 100.03933502 -82.06672668 100.27290344 C-84.67674468 101.20949331 -87.28678452 102.14566868 -89.90209961 103.06738281 C-97.54767495 105.76705656 -104.80163319 108.69946219 -111.83032227 112.78759766 C-114 114 -114 114 -117 115 C-117 115.66 -117 116.32 -117 117 C-117.66 117 -118.32 117 -119 117 C-119.268125 117.53625 -119.53625 118.0725 -119.8125 118.625 C-120.69599055 120.3919811 -121.61915098 122.1392378 -122.5625 123.875 C-123.99295257 126.98467949 -124.59734768 129.61772053 -125 133 C-128 132 -128 132 -129.0625 130.21484375 C-129.371875 129.46332031 -129.68125 128.71179688 -130 127.9375 C-130.4640625 126.83728516 -130.4640625 126.83728516 -130.9375 125.71484375 C-131.288125 124.81894531 -131.63875 123.92304688 -132 123 C-132.25587891 122.41581299 -132.51175781 121.83162598 -132.77539062 121.22973633 C-134.94348269 116.02618602 -135.54364215 111.42798134 -135.5 105.8125 C-135.49645508 104.98532471 -135.49291016 104.15814941 -135.48925781 103.3059082 C-135.23124857 93.66888908 -132.22240109 84.50979442 -126 77 C-125.34 77 -124.68 77 -124 77 C-123.34 75.68 -122.68 74.36 -122 73 C-121.34 73 -120.68 73 -120 73 C-120 72.34 -120 71.68 -120 71 C-112.36645176 64.95677431 -104.11258154 61.51429825 -94.9375 58.4375 C-88.08988917 56.12097868 -88.08988917 56.12097868 -81.37890625 53.44140625 C-76.99692546 51.57209884 -72.5220145 50.24887404 -67.9609375 48.89453125 C-64.23774985 47.76607476 -60.73218503 46.46343773 -57.17041016 44.88378906 C-51.15959087 42.43618886 -44.91842378 40.53012757 -38.76000977 38.48486328 C-31.53829896 36.08100342 -24.64659785 33.58352816 -17.96411133 29.91357422 C-16 29 -16 29 -13 29 C-13 28.34 -13 27.68 -13 27 C-11.01310269 25.64721885 -9.01254782 24.31431695 -7 23 C-6.67 22.34 -6.34 21.68 -6 21 C-5.34 21 -4.68 21 -4 21 C-4 20.34 -4 19.68 -4 19 C-3.34 19 -2.68 19 -2 19 C-1.690625 18.05125 -1.38125 17.1025 -1.0625 16.125 C-0 13 -0 13 1 11 C1.1421988 7.16063232 1.17754676 3.67983361 0 0 Z " fill="#DD652A" transform="translate(291,104)"/>
<path d="M0 0 C0.00423194 0.56322338 0.00846388 1.12644676 0.01282406 1.70673752 C0.11612734 15.41100811 0.22482614 29.11522675 0.33933926 42.81940842 C0.39455351 49.44664592 0.44797123 56.07388785 0.49731445 62.70117188 C0.54497993 69.09431081 0.59732371 75.48739574 0.65294075 81.88047028 C0.67335437 84.32214263 0.69206909 86.76382979 0.70907402 89.20552826 C0.73313984 92.61982077 0.76319172 96.03401119 0.79467773 99.44824219 C0.80331093 100.96954239 0.80331093 100.96954239 0.81211853 102.52157593 C0.82190735 103.45263153 0.83169617 104.38368713 0.84178162 105.34295654 C0.84823417 106.1504472 0.85468672 106.95793785 0.8613348 107.78989792 C0.99847889 109.97575598 1.39742792 111.89893381 2 114 C8.06252497 115.76823645 13.24585839 116.8770708 19 114 C20.32676508 113.64141484 21.65835921 113.2981424 23 113 C22.48721591 117.40994318 21.48310778 120.32500049 19 124 C18.34 124.99 17.68 125.98 17 127 C16.34 127 15.68 127 15 127 C15 127.66 15 128.32 15 129 C14.01 129 13.02 129 12 129 C12 129.66 12 130.32 12 131 C1.29056506 136.31548877 -9.76419604 138.72228667 -21.6015625 135.87109375 C-26.07322485 134.24702094 -30.25274996 131.93401705 -34 129 C-34 128.34 -34 127.68 -34 127 C-34.66 127 -35.32 127 -36 127 C-37.4375 125.05859375 -37.4375 125.05859375 -39 122.4375 C-39.515625 121.59058594 -40.03125 120.74367188 -40.5625 119.87109375 C-43.81632246 113.37229074 -44.28657007 107.62931004 -44.22705078 100.48461914 C-44.22734283 99.55700775 -44.22763489 98.62939636 -44.22793579 97.67367554 C-44.22654967 94.62740513 -44.21102231 91.58138359 -44.1953125 88.53515625 C-44.19157982 86.41523879 -44.18873405 84.29531959 -44.18673706 82.17539978 C-44.1791207 76.61053662 -44.15948937 71.04577875 -44.1373291 65.48095703 C-44.11682761 59.79656397 -44.10772615 54.1121538 -44.09765625 48.42773438 C-44.07624159 37.28511013 -44.04212978 26.14256384 -44 15 C-42.08810385 14.19981656 -40.17584223 13.40050633 -38.26342773 12.6015625 C-37.19857651 12.15635254 -36.13372528 11.71114258 -35.03660583 11.25244141 C-30.74197956 9.48113223 -26.40269796 7.86310192 -22.04418945 6.25561523 C-18.74386495 5.03404361 -15.45720141 3.79391694 -12.1953125 2.47265625 C-10.45894531 1.77462891 -10.45894531 1.77462891 -8.6875 1.0625 C-7.66011719 0.64097656 -6.63273437 0.21945313 -5.57421875 -0.21484375 C-3 -1 -3 -1 0 0 Z " fill="#E06F34" transform="translate(262,192)"/>
<path d="M0 0 C4.73658558 7.10487838 4.79162516 15.72131765 4 24 C2.54890464 30.09031155 0.57684661 35.81779704 -3 41 C-3.66 41 -4.32 41 -5 41 C-5 41.66 -5 42.32 -5 43 C-14.86614763 50.50763423 -26.6809172 55.1711678 -38 60 C-38.9384375 60.41507813 -39.876875 60.83015625 -40.84375 61.2578125 C-43 62 -43 62 -47 62 C-47.33 60.02 -47.66 58.04 -48 56 C-45.36 56 -42.72 56 -40 56 C-39.67 55.34 -39.34 54.68 -39 54 C-36.71484375 53.3671875 -36.71484375 53.3671875 -33.9375 52.875 C-32.55884766 52.62363281 -32.55884766 52.62363281 -31.15234375 52.3671875 C-30.44207031 52.24601562 -29.73179687 52.12484375 -29 52 C-28.67 50.68 -28.34 49.36 -28 48 C-26.02 48 -24.04 48 -22 48 C-21.67 47.34 -21.34 46.68 -21 46 C-18.39902318 44.69951159 -15.86044938 44.43528578 -13 44 C-13 42.35 -13 40.7 -13 39 C-10.50935112 38.31292445 -8.62113708 38 -6 38 C-5.855625 37.21625 -5.71125 36.4325 -5.5625 35.625 C-5 33 -5 33 -4 31 C-3.01 31 -2.02 31 -1 31 C-1 28.03 -1 25.06 -1 22 C-0.34 22 0.32 22 1 22 C0.67 14.74 0.34 7.48 0 0 Z M-18 42 C-18 45 -18 45 -18 45 Z " fill="#EDA658" transform="translate(309,122)"/>
<path d="M0 0 C0.99 0 1.98 0 3 0 C2.48721591 4.40994318 1.48310778 7.32500049 -1 11 C-1.66 11.99 -2.32 12.98 -3 14 C-3.66 14 -4.32 14 -5 14 C-5 14.66 -5 15.32 -5 16 C-5.99 16 -6.98 16 -8 16 C-8 16.66 -8 17.32 -8 18 C-18.70943494 23.31548877 -29.76419604 25.72228667 -41.6015625 22.87109375 C-46.07322485 21.24702094 -50.25274996 18.93401705 -54 16 C-54 15.34 -54 14.68 -54 14 C-54.66 14 -55.32 14 -56 14 C-55.67 13.34 -55.34 12.68 -55 12 C-54.154375 12.495 -53.30875 12.99 -52.4375 13.5 C-48.66203168 15.14747708 -46.07182452 15.24430947 -42 15 C-42 15.66 -42 16.32 -42 17 C-40.4221875 16.9071875 -40.4221875 16.9071875 -38.8125 16.8125 C-35 17 -35 17 -32.6875 18.5625 C-28.48141064 20.81226873 -24.55819878 19.98614877 -20 19 C-16.66556056 17.54276115 -16.66556056 17.54276115 -14 16 C-13.01 16 -12.02 16 -11 16 C-11.2475 15.443125 -11.495 14.88625 -11.75 14.3125 C-12 12 -12 12 -10.0625 9.25 C-9.381875 8.5075 -8.70125 7.765 -8 7 C-9.32 6.67 -10.64 6.34 -12 6 C-12 5.34 -12 4.68 -12 4 C-12.66 3.67 -13.32 3.34 -14 3 C-12.783125 3.04125 -11.56625 3.0825 -10.3125 3.125 C-6.77817381 3.13126654 -4.18739261 2.64199013 -1 1 C-0.67 0.67 -0.34 0.34 0 0 Z " fill="#F1972C" transform="translate(282,305)"/>
<path d="M0 0 C5.8906031 0.80791258 9.00540925 3.77990816 13 8 C18 14.68269231 18 14.68269231 18 18 C17.34 18 16.68 18 16 18 C13.33463037 15.13472765 11.36488925 12.98063985 10 9.3125 C8.67654669 6.25201422 6.92016205 5.46008103 4 4 C4.05220703 5.01320313 4.05220703 5.01320313 4.10546875 6.046875 C4.13253906 6.93890625 4.15960938 7.8309375 4.1875 8.75 C4.23970703 10.07257813 4.23970703 10.07257813 4.29296875 11.421875 C3.94511275 14.48300777 2.85285266 15.60733988 1 18 C1 19.32 1 20.64 1 22 C-0.65 22 -2.3 22 -4 22 C-4.12375 22.61875 -4.2475 23.2375 -4.375 23.875 C-5 26 -5 26 -7 28 C-7.433125 28.474375 -7.86625 28.94875 -8.3125 29.4375 C-10.82127846 31.76044302 -13.48716514 34 -17 34 C-17 35.32 -17 36.64 -17 38 C-17.99 38 -18.98 38 -20 38 C-19.67 36.68 -19.34 35.36 -19 34 C-19.79664063 34.34224609 -19.79664063 34.34224609 -20.609375 34.69140625 C-21.66898437 35.12259766 -21.66898437 35.12259766 -22.75 35.5625 C-23.44609375 35.85253906 -24.1421875 36.14257812 -24.859375 36.44140625 C-27.30012784 37.07831803 -28.6403655 36.80248831 -31 36 C-28.75157909 35.01706733 -26.50140453 34.03855534 -24.25 33.0625 C-23.29867188 32.64581055 -23.29867188 32.64581055 -22.328125 32.22070312 C-19.25632842 30.89279106 -16.28999974 29.65633833 -13 29 C-13 28.34 -13 27.68 -13 27 C-11.01310269 25.64721885 -9.01254782 24.31431695 -7 23 C-6.67 22.34 -6.34 21.68 -6 21 C-5.34 21 -4.68 21 -4 21 C-4 20.34 -4 19.68 -4 19 C-3.34 19 -2.68 19 -2 19 C-1.690625 18.05125 -1.38125 17.1025 -1.0625 16.125 C0 13 0 13 1 11 C1.1421988 7.16063232 1.17754676 3.67983361 0 0 Z " fill="#EEB870" transform="translate(291,104)"/>
<path d="M0 0 C0 0.99 0 1.98 0 3 C-0.69867188 3.25394531 -1.39734375 3.50789062 -2.1171875 3.76953125 C-3.02726563 4.11371094 -3.93734375 4.45789063 -4.875 4.8125 C-5.77992188 5.14894531 -6.68484375 5.48539063 -7.6171875 5.83203125 C-10.29425849 6.89649024 -10.29425849 6.89649024 -12 10 C-12.23155261 12.95905947 -12.3495519 15.8308428 -12.37890625 18.79296875 C-12.3955835 19.67984879 -12.41226074 20.56672882 -12.42944336 21.48048401 C-12.4824046 24.38274447 -12.52232184 27.28503705 -12.5625 30.1875 C-12.61449723 33.18094529 -12.6699589 36.17431402 -12.72557068 39.16769409 C-12.7627785 41.18307519 -12.79887557 43.19847709 -12.83387756 45.21389771 C-12.99557489 54.39548553 -13.25917403 63.57213831 -13.5625 72.75 C-13.60689747 74.11743017 -13.65125115 75.48486177 -13.69555664 76.85229492 C-13.79529907 79.90159222 -13.89660995 82.95082458 -14 86 C-14.33 86 -14.66 86 -15 86 C-15 59.6 -15 33.2 -15 6 C-14.01 5.67 -13.02 5.34 -12 5 C-12 4.34 -12 3.68 -12 3 C-10.75336669 2.49166409 -9.50250613 1.99368855 -8.25 1.5 C-7.55390625 1.2215625 -6.8578125 0.943125 -6.140625 0.65625 C-4 0 -4 0 0 0 Z " fill="#C05B41" transform="translate(234,202)"/>
<path d="M0 0 C4.73658558 7.10487838 4.79162516 15.72131765 4 24 C2.56146749 30.03758471 0.64836699 35.91964896 -3 41 C-6.1875 41.3125 -6.1875 41.3125 -9 41 C-9.33 42.32 -9.66 43.64 -10 45 C-10.99 44.67 -11.98 44.34 -13 44 C-13 42.35 -13 40.7 -13 39 C-10.50935112 38.31292445 -8.62113708 38 -6 38 C-5.7834375 36.824375 -5.7834375 36.824375 -5.5625 35.625 C-5 33 -5 33 -4 31 C-3.01 31 -2.02 31 -1 31 C-1 28.03 -1 25.06 -1 22 C-0.34 22 0.32 22 1 22 C0.67 14.74 0.34 7.48 0 0 Z " fill="#E99C3F" transform="translate(309,122)"/>
<path d="M0 0 C2.3356627 0.40270046 3.84941993 0.892161 5.7890625 2.28125 C7 4 7 4 6.9609375 6.15625 C6.76757812 6.9296875 6.57421875 7.703125 6.375 8.5 C6.19710938 9.2734375 6.01921875 10.046875 5.8359375 10.84375 C4.91789887 13.21177489 3.836751 14.2912799 2 16 C1.28552357 18.10332891 1.28552357 18.10332891 1 20 C-1.64 20 -4.28 20 -7 20 C-7.33 22.31 -7.66 24.62 -8 27 C-8.66 26.67 -9.32 26.34 -10 26 C-10 25.34 -10 24.68 -10 24 C-10.66 23.67 -11.32 23.34 -12 23 C-11.01 22.67 -10.02 22.34 -9 22 C-8.26676204 19.98491642 -8.26676204 19.98491642 -8 18 C-6.68 17.67 -5.36 17.34 -4 17 C-3.87625 16.21625 -3.7525 15.4325 -3.625 14.625 C-3 12 -3 12 -1 10 C-0.53837573 7.56747339 -0.53837573 7.56747339 -0.375 4.875 C-0.30023438 3.96492188 -0.22546875 3.05484375 -0.1484375 2.1171875 C-0.09945313 1.41851562 -0.05046875 0.71984375 0 0 Z " fill="#F4931E" transform="translate(295,108)"/>
<path d="M0 0 C0 21.12 0 42.24 0 64 C-0.33 64 -0.66 64 -1 64 C-1 44.53 -1 25.06 -1 5 C-1.66 5.66 -2.32 6.32 -3 7 C-3.5775 6.835 -4.155 6.67 -4.75 6.5 C-7.91536066 5.79658652 -10.03330387 6.8537765 -13 8 C-13 7.01 -13 6.02 -13 5 C-11.7625 4.731875 -10.525 4.46375 -9.25 4.1875 C-6.2382211 3.44654909 -2.54594602 0 0 0 Z " fill="#B14839" transform="translate(260,192)"/>
<path d="M0 0 C0.99 0 1.98 0 3 0 C2.48721591 4.40994318 1.48310778 7.32500049 -1 11 C-1.99 12.485 -1.99 12.485 -3 14 C-3.66 14 -4.32 14 -5 14 C-5 14.66 -5 15.32 -5 16 C-5.99 16 -6.98 16 -8 16 C-8 16.66 -8 17.32 -8 18 C-9.98 18.66 -11.96 19.32 -14 20 C-13.505 18.515 -13.505 18.515 -13 17 C-12.01 17 -11.02 17 -10 17 C-9.67 15.68 -9.34 14.36 -9 13 C-7.68 13 -6.36 13 -5 13 C-5 12.34 -5 11.68 -5 11 C-4.34 11 -3.68 11 -3 11 C-3 10.01 -3 9.02 -3 8 C-2.34 8 -1.68 8 -1 8 C-1 7.01 -1 6.02 -1 5 C-1.99 5.33 -2.98 5.66 -4 6 C-5.39439664 6.06665376 -6.79169875 6.08538199 -8.1875 6.0625 C-10.0746875 6.0315625 -10.0746875 6.0315625 -12 6 C-12 5.34 -12 4.68 -12 4 C-12.66 3.67 -13.32 3.34 -14 3 C-12.783125 3.04125 -11.56625 3.0825 -10.3125 3.125 C-6.77817381 3.13126654 -4.18739261 2.64199013 -1 1 C-0.67 0.67 -0.34 0.34 0 0 Z " fill="#F1C790" transform="translate(282,305)"/>
<path d="M0 0 C-1 3 -1 3 -3.1875 4.625 C-6.16620555 6.08125605 -8.74856461 6.48272619 -12 7 C-12.33 7.66 -12.66 8.32 -13 9 C-14.66666667 9.33333333 -16.33333333 9.66666667 -18 10 C-18.33 10.66 -18.66 11.32 -19 12 C-19.66 10.68 -20.32 9.36 -21 8 C-20.34 7.67 -19.68 7.34 -19 7 C-18.29875 6.38125 -17.5975 5.7625 -16.875 5.125 C-11.65877001 1.26952566 -6.53600945 -0.49020071 0 0 Z " fill="#C45236" transform="translate(201,164)"/>
<path d="M0 0 C0.33 0 0.66 0 1 0 C1.12117188 0.78246094 1.24234375 1.56492187 1.3671875 2.37109375 C1.53476562 3.38300781 1.70234375 4.39492188 1.875 5.4375 C2.03742188 6.44683594 2.19984375 7.45617187 2.3671875 8.49609375 C2.57601563 9.32238281 2.78484375 10.14867187 3 11 C3.66 11.33 4.32 11.66 5 12 C5 12.66 5 13.32 5 14 C6.32 14.33 7.64 14.66 9 15 C9 15.66 9 16.32 9 17 C9.66 17 10.32 17 11 17 C11 17.99 11 18.98 11 20 C8.74778616 21.36741555 7.47442242 22.04066478 4.8125 21.8125 C4.214375 21.544375 3.61625 21.27625 3 21 C2.67 20.01 2.34 19.02 2 18 C1.34 18 0.68 18 0 18 C0.495 16.515 0.495 16.515 1 15 C0.67 14.01 0.34 13.02 0 12 C-0.068991 9.93854893 -0.08467727 7.87498599 -0.0625 5.8125 C-0.05347656 4.72582031 -0.04445313 3.63914062 -0.03515625 2.51953125 C-0.02355469 1.68808594 -0.01195312 0.85664063 0 0 Z " fill="#EE9836" transform="translate(259,292)"/>
<path d="M0 0 C-1.05155829 2.86788625 -1.63619176 3.82276009 -4.4375 5.1875 C-5.283125 5.455625 -6.12875 5.72375 -7 6 C-7.99 6.33 -8.98 6.66 -10 7 C-10 8.32 -10 9.64 -10 11 C-10.99 11 -11.98 11 -13 11 C-12.67 9.68 -12.34 8.36 -12 7 C-12.53109375 7.22816406 -13.0621875 7.45632812 -13.609375 7.69140625 C-14.31578125 7.97886719 -15.0221875 8.26632813 -15.75 8.5625 C-16.44609375 8.85253906 -17.1421875 9.14257812 -17.859375 9.44140625 C-20.30012784 10.07831803 -21.6403655 9.80248831 -24 9 C-21.75157909 8.01706733 -19.50140453 7.03855534 -17.25 6.0625 C-16.61578125 5.78470703 -15.9815625 5.50691406 -15.328125 5.22070312 C-12.25632842 3.89279106 -9.28999974 2.65633833 -6 2 C-6 1.34 -6 0.68 -6 0 C-3.50907189 -1.24546405 -2.58919267 -0.7767578 0 0 Z " fill="#F1B271" transform="translate(284,131)"/>
<path d="M0 0 C0 0.66 0 1.32 0 2 C-1.98 2.66 -3.96 3.32 -6 4 C-6 4.66 -6 5.32 -6 6 C-12.5 9 -12.5 9 -17 9 C-17.33 7.02 -17.66 5.04 -18 3 C-15.36 3 -12.72 3 -10 3 C-9.67 2.34 -9.34 1.68 -9 1 C-5.98003217 0.45091494 -3.07380605 0 0 0 Z " fill="#E47F2F" transform="translate(279,175)"/>
<path d="M0 0 C0.33 0 0.66 0 1 0 C1.22577402 5.4185766 0.46670113 9.77487721 -1 15 C-4 14 -4 14 -6 11 C-6.1953125 8.73828125 -6.1953125 8.73828125 -6.125 6.3125 C-6.10695312 5.50425781 -6.08890625 4.69601563 -6.0703125 3.86328125 C-6.04710937 3.24839844 -6.02390625 2.63351563 -6 2 C-4.35 2 -2.7 2 -1 2 C-0.67 1.34 -0.34 0.68 0 0 Z " fill="#B82C36" transform="translate(167,222)"/>
<path d="M0 0 C-0.70084717 0.26216309 -1.40169434 0.52432617 -2.1237793 0.79443359 C-5.31190378 1.98737517 -8.49970475 3.18117892 -11.6875 4.375 C-12.79029297 4.7875 -13.89308594 5.2 -15.02929688 5.625 C-16.09599609 6.02460938 -17.16269531 6.42421875 -18.26171875 6.8359375 C-19.24100342 7.20251465 -20.22028809 7.5690918 -21.22924805 7.94677734 C-23.83170423 8.93602714 -26.41847651 9.95750129 -29 11 C-28.67 9.68 -28.34 8.36 -28 7 C-26.35 7 -24.7 7 -23 7 C-22.67 6.01 -22.34 5.02 -22 4 C-15.60317658 1.07400822 -6.93304028 -2.31101343 0 0 Z " fill="#DC9E92" transform="translate(210,204)"/>
<path d="M0 0 C4.70400665 1.84470849 8.09625147 3.72929177 12 7 C15.23008449 8.98364572 17.65683549 9.23714627 21.421875 9.1953125 C22.44667969 9.18886719 23.47148437 9.18242187 24.52734375 9.17578125 C26.12255859 9.15064453 26.12255859 9.15064453 27.75 9.125 C28.82894531 9.11597656 29.90789062 9.10695313 31.01953125 9.09765625 C33.67991278 9.07411305 36.33984336 9.04122799 39 9 C32.93874433 13.04083712 23.80945347 12.54860635 16.75 11.4375 C11.31900387 10.1293697 6.3889943 7.43648915 2 4 C2 3.34 2 2.68 2 2 C1.34 2 0.68 2 0 2 C0 1.34 0 0.68 0 0 Z " fill="#F7D095" transform="translate(226,317)"/>
<path d="M0 0 C0.33 0.99 0.66 1.98 1 3 C0.319375 3.5878125 0.319375 3.5878125 -0.375 4.1875 C-4.64935732 8.9550524 -4.24884626 14.27737648 -4.125 20.3125 C-4.11597656 21.14845703 -4.10695312 21.98441406 -4.09765625 22.84570312 C-4.07420989 24.89725969 -4.03834266 26.94866777 -4 29 C-4.99 28.67 -5.98 28.34 -7 28 C-7.48061958 11.20501567 -7.48061958 11.20501567 -5 4 C-2.375 1.3125 -2.375 1.3125 0 0 Z " fill="#AB313B" transform="translate(164,188)"/>
<path d="M0 0 C-0.969375 0.61875 -1.93875 1.2375 -2.9375 1.875 C-6.02835362 3.65678846 -6.02835362 3.65678846 -7 6 C-7.66 5.67 -8.32 5.34 -9 5 C-9 5.99 -9 6.98 -9 8 C-9.639375 8.268125 -10.27875 8.53625 -10.9375 8.8125 C-13.33131686 9.88667752 -13.33131686 9.88667752 -14 13 C-14.99 13 -15.98 13 -17 13 C-17.33 11.35 -17.66 9.7 -18 8 C-5.07692308 -1.69230769 -5.07692308 -1.69230769 0 0 Z " fill="#D37870" transform="translate(189,167)"/>
<path d="M0 0 C2.42732416 2.42732416 4.0984892 5.14773379 6 8 C6.66 7.34 7.32 6.68 8 6 C8.99 6 9.98 6 11 6 C11.125 8.875 11.125 8.875 11 12 C10.34 12.66 9.68 13.32 9 14 C3.25 11.375 3.25 11.375 1 8 C0.46083854 5.3397977 0.26629902 2.70737337 0 0 Z " fill="#F89119" transform="translate(221,305)"/>
<path d="M0 0 C2.475 0.495 2.475 0.495 5 1 C2.95864363 3.04135637 1.91460834 3.54390561 -0.73828125 4.47265625 C-1.47626953 4.73240234 -2.21425781 4.99214844 -2.97460938 5.25976562 C-4.13186523 5.65711914 -4.13186523 5.65711914 -5.3125 6.0625 C-6.07240234 6.33126953 -6.83230469 6.60003906 -7.61523438 6.87695312 C-11.38523831 8.19039498 -15.04536347 9.36062763 -19 10 C-18 7 -18 7 -15.48828125 5.6484375 C-13.91626953 5.01808594 -13.91626953 5.01808594 -12.3125 4.375 C-10.75982422 3.73691406 -10.75982422 3.73691406 -9.17578125 3.0859375 C-6.10444934 2.03571576 -3.21094271 1.43326064 0 1 C0 0.67 0 0.34 0 0 Z " fill="#DE967B" transform="translate(229,193)"/>
<path d="M0 0 C1.32 0 2.64 0 4 0 C4 0.66 4 1.32 4 2 C5.093125 1.938125 6.18625 1.87625 7.3125 1.8125 C11 2 11 2 12.9375 3.5 C13.288125 3.995 13.63875 4.49 14 5 C12.44969882 6.55030118 10.96323999 6.24405099 8.8125 6.3125 C3.98692178 6.28937423 1.68370079 5.02252372 -2 2 C-1.34 1.34 -0.68 0.68 0 0 Z " fill="#F59422" transform="translate(236,320)"/>
<path d="M0 0 C0 0.99 0 1.98 0 3 C-1.26457031 3.03867188 -1.26457031 3.03867188 -2.5546875 3.078125 C-3.65039062 3.13484375 -4.74609375 3.1915625 -5.875 3.25 C-6.96554688 3.29640625 -8.05609375 3.3428125 -9.1796875 3.390625 C-10.57574219 3.69226563 -10.57574219 3.69226563 -12 4 C-13.32055484 5.92663848 -13.32055484 5.92663848 -14 8 C-16.94639752 9.27677226 -18.99135897 8.96706319 -22 8 C-22.33 8.66 -22.66 9.32 -23 10 C-23.66 9.34 -24.32 8.68 -25 8 C-18.9968237 5.44367362 -12.97722601 2.93657171 -6.875 0.625 C-5.98554688 0.28726563 -5.09609375 -0.05046875 -4.1796875 -0.3984375 C-2 -1 -2 -1 0 0 Z " fill="#D58185" transform="translate(259,193)"/>
<path d="M0 0 C0 0.66 0 1.32 0 2 C-0.92232422 2.16435547 -0.92232422 2.16435547 -1.86328125 2.33203125 C-2.67152344 2.49058594 -3.47976562 2.64914063 -4.3125 2.8125 C-5.11300781 2.96332031 -5.91351563 3.11414063 -6.73828125 3.26953125 C-9.04782982 3.81980999 -9.04782982 3.81980999 -10.41796875 5.46484375 C-12.68800763 7.66762222 -14.95187045 8.01785124 -18 8.75 C-19.051875 9.01296875 -20.10375 9.2759375 -21.1875 9.546875 C-24 10 -24 10 -27 9 C-5.8647541 0 -5.8647541 0 0 0 Z " fill="#E4AC9B" transform="translate(217,156)"/>
<path d="M0 0 C-1.98 0.99 -1.98 0.99 -4 2 C-3.34 2.33 -2.68 2.66 -2 3 C-2.99 4.485 -2.99 4.485 -4 6 C-8.8527811 6.32351874 -13.21996348 5.9560073 -18 5 C-14.99390278 2.99593518 -12.40757305 1.96923742 -9 0.8125 C-7.948125 0.44769531 -6.89625 0.08289063 -5.8125 -0.29296875 C-3 -1 -3 -1 0 0 Z " fill="#EAA570" transform="translate(260,142)"/>
<path d="M0 0 C0.33 0 0.66 0 1 0 C2.25610227 9.12123495 1.74440282 17.87247617 1 27 C0.67 27 0.34 27 0 27 C-2.02992693 18.15531837 -1.10632188 8.929598 0 0 Z " fill="#DD8737" transform="translate(220,278)"/>
<path d="M0 0 C4.99929637 7.49894455 5.19063873 17.71835429 3.546875 26.390625 C3 28.3125 3 28.3125 2 31 C0.6642543 27.22628488 1.27591329 24.14168653 1.9375 20.25 C2.13214844 19.07953125 2.32679688 17.9090625 2.52734375 16.703125 C2.68332031 15.81109375 2.83929688 14.9190625 3 14 C2.34 14 1.68 14 1 14 C0.67 9.38 0.34 4.76 0 0 Z " fill="#F7DCAC" transform="translate(309,122)"/>
<path d="M0 0 C1.32 0 2.64 0 4 0 C4 0.66 4 1.32 4 2 C1.98379306 3.43587438 -0.00792234 4.7297534 -2.125 6 C-2.69476563 6.35578125 -3.26453125 6.7115625 -3.8515625 7.078125 C-7.45824013 9.27491956 -10.95025352 10.81831106 -15 12 C-14.67 11.34 -14.34 10.68 -14 10 C-13.34 10 -12.68 10 -12 10 C-12 9.34 -12 8.68 -12 8 C-10.02 7.67 -8.04 7.34 -6 7 C-6 6.01 -6 5.02 -6 4 C-4.35 3.67 -2.7 3.34 -1 3 C-0.67 2.01 -0.34 1.02 0 0 Z " fill="#F1C990" transform="translate(300,163)"/>
<path d="M0 0 C-0.66 1.32 -1.32 2.64 -2 4 C-2.804375 3.938125 -3.60875 3.87625 -4.4375 3.8125 C-8.34435662 4.01812403 -11.24351487 5.01717692 -14.8515625 6.44140625 C-17.31931564 7.08302207 -18.58999228 6.69096139 -21 6 C-17.87959957 4.80015399 -14.75304469 3.61725823 -11.625 2.4375 C-10.73554688 2.09525391 -9.84609375 1.75300781 -8.9296875 1.40039062 C-7.65351563 0.92182617 -7.65351563 0.92182617 -6.3515625 0.43359375 C-5.17327881 -0.01415405 -5.17327881 -0.01415405 -3.97119141 -0.47094727 C-2 -1 -2 -1 0 0 Z " fill="#E0873F" transform="translate(273,138)"/>
<path d="M0 0 C5.9370044 2.56311203 10.01523804 7.6023187 12.4375 13.5 C12.623125 14.325 12.80875 15.15 13 16 C12.34 16 11.68 16 11 16 C7.66268556 12.41238697 5.75799931 9.57079822 4 5 C2.71332828 3.29705213 1.38903267 1.62053812 0 0 Z " fill="#F3C98D" transform="translate(296,106)"/>
<path d="M0 0 C0 0.99 0 1.98 0 3 C-3.63 3.33 -7.26 3.66 -11 4 C-11.33 4.99 -11.66 5.98 -12 7 C-12.66 7 -13.32 7 -14 7 C-14 9.31 -14 11.62 -14 14 C-14.33 14 -14.66 14 -15 14 C-15 11.36 -15 8.72 -15 6 C-14.01 5.67 -13.02 5.34 -12 5 C-12 4.34 -12 3.68 -12 3 C-10.75336669 2.49166409 -9.50250613 1.99368855 -8.25 1.5 C-7.55390625 1.2215625 -6.8578125 0.943125 -6.140625 0.65625 C-4 0 -4 0 0 0 Z " fill="#C0746F" transform="translate(234,202)"/>
<path d="M0 0 C1.28132812 0.00902344 2.56265625 0.01804688 3.8828125 0.02734375 C4.87023437 0.03894531 5.85765625 0.05054688 6.875 0.0625 C4.51199651 2.42550349 3.2951502 2.57683444 0.0625 3.1875 C-1.21560547 3.43886719 -1.21560547 3.43886719 -2.51953125 3.6953125 C-5.09343811 4.058052 -7.52961588 4.12773407 -10.125 4.0625 C-9.795 3.0725 -9.465 2.0825 -9.125 1.0625 C-6.12186252 -0.43906874 -3.33432478 -0.03031204 0 0 Z " fill="#C74E32" transform="translate(205.125,200.9375)"/>
<path d="M0 0 C0.33 0.66 0.66 1.32 1 2 C0.34 2 -0.32 2 -1 2 C-1.33 2.66 -1.66 3.32 -2 4 C-3.66666667 4.33333333 -5.33333333 4.66666667 -7 5 C-7.33 5.66 -7.66 6.32 -8 7 C-8.66 5.68 -9.32 4.36 -10 3 C-9.34 2.67 -8.68 2.34 -8 2 C-4.77208445 -0.1519437 -3.71599191 -0.20086443 0 0 Z " fill="#CA412B" transform="translate(190,169)"/>
<path d="M0 0 C0.66 0.33 1.32 0.66 2 1 C0.7260411 3.03833424 -0.61061923 5.03852126 -2 7 C-2.66 7 -3.32 7 -4 7 C-4.0825 7.78375 -4.165 8.5675 -4.25 9.375 C-5 12 -5 12 -7.0625 13.3125 C-8.0215625 13.6528125 -8.0215625 13.6528125 -9 14 C-7.66749209 10.4124787 -6.169283 7.1635377 -4 4 C-3.34 4 -2.68 4 -2 4 C-1.34 2.68 -0.68 1.36 0 0 Z " fill="#E2A8A8" transform="translate(169,177)"/>
<path d="M0 0 C4 4.75 4 4.75 4 7 C2.02 6.34 0.04 5.68 -2 5 C-2.66 6.65 -3.32 8.3 -4 10 C-4.66 10 -5.32 10 -6 10 C-6 9.01 -6 8.02 -6 7 C-5.34 6.67 -4.68 6.34 -4 6 C-2.96986723 4.35178756 -1.96885372 2.68496298 -1 1 C-0.67 0.67 -0.34 0.34 0 0 Z " fill="#BD3734" transform="translate(171,177)"/>
<path d="M0 0 C0.33 0.99 0.66 1.98 1 3 C0.319375 3.5878125 0.319375 3.5878125 -0.375 4.1875 C-2.27269457 6.30415932 -2.9638919 8.37519282 -4 11 C-4.99 11.495 -4.99 11.495 -6 12 C-5.63076923 4.61538462 -5.63076923 4.61538462 -2.4375 1.5 C-1.633125 1.005 -0.82875 0.51 0 0 Z " fill="#B93B40" transform="translate(164,188)"/>
<path d="M0 0 C0.66 -0.33 1.32 -0.66 2 -1 C2 -0.01 2 0.98 2 2 C0.68 2 -0.64 2 -2 2 C-2.33 3.32 -2.66 4.64 -3 6 C-3.99 5.67 -4.98 5.34 -6 5 C-6 3.35 -6 1.7 -6 0 C-3.4791665 -1.26041675 -2.64903564 -0.66225891 0 0 Z " fill="#F09424" transform="translate(302,161)"/>
<path d="M0 0 C-0.33 0.99 -0.66 1.98 -1 3 C-3.5625 4.1875 -3.5625 4.1875 -6 5 C-6 5.66 -6 6.32 -6 7 C-6.66 7 -7.32 7 -8 7 C-8 5.35 -8 3.7 -8 2 C-2.25 0 -2.25 0 0 0 Z " fill="#CC7779" transform="translate(180,214)"/>
<path d="M0 0 C0.598125 0.350625 1.19625 0.70125 1.8125 1.0625 C0.8225 1.3925 -0.1675 1.7225 -1.1875 2.0625 C-1.5175 3.0525 -1.8475 4.0425 -2.1875 5.0625 C-3.5075 5.0625 -4.8275 5.0625 -6.1875 5.0625 C-5.8575 3.4125 -5.5275 1.7625 -5.1875 0.0625 C-2.1875 -0.9375 -2.1875 -0.9375 0 0 Z " fill="#BD2F30" transform="translate(239.1875,201.9375)"/>
<path d="M0 0 C-1.75864246 2.1793144 -2.69396 2.93686419 -5.48046875 3.51171875 C-6.82044922 3.59873047 -6.82044922 3.59873047 -8.1875 3.6875 C-9.08855469 3.75324219 -9.98960937 3.81898438 -10.91796875 3.88671875 C-11.60503906 3.92410156 -12.29210937 3.96148437 -13 4 C-12 2 -12 2 -9.78515625 1.11328125 C-8.88667969 0.84902344 -7.98820313 0.58476562 -7.0625 0.3125 C-6.16660156 0.04050781 -5.27070313 -0.23148438 -4.34765625 -0.51171875 C-2 -1 -2 -1 0 0 Z " fill="#E7AF8A" transform="translate(242,148)"/>
<path d="M0 0 C-0.99 1.485 -0.99 1.485 -2 3 C-2.53625 2.79375 -3.0725 2.5875 -3.625 2.375 C-6.83267308 1.8685253 -9.01317066 2.84599775 -12 4 C-12 3.01 -12 2.02 -12 1 C-7.53763531 -0.80619523 -4.68965706 -1.11658501 0 0 Z " fill="#BA2631" transform="translate(259,196)"/>
<path d="M0 0 C1.4540625 0.0309375 1.4540625 0.0309375 2.9375 0.0625 C3.2675 1.3825 3.5975 2.7025 3.9375 4.0625 C2.82375 4.041875 1.71 4.02125 0.5625 4 C-2.89465921 3.79869282 -2.89465921 3.79869282 -5.0625 5.0625 C-3.9375 0.08035714 -3.9375 0.08035714 0 0 Z " fill="#DB7633" transform="translate(245.0625,146.9375)"/>
<path d="M0 0 C1.27351308 2.54702616 0.80191925 3.4282945 0.0625 6.125 C-0.13214844 6.84945312 -0.32679688 7.57390625 -0.52734375 8.3203125 C-0.76130859 9.15175781 -0.76130859 9.15175781 -1 10 C-4 9 -4 9 -6 6 C-5.67 5.01 -5.34 4.02 -5 3 C-5 3.66 -5 4.32 -5 5 C-4.01 5 -3.02 5 -2 5 C-1.34 3.35 -0.68 1.7 0 0 Z " fill="#E3B6B9" transform="translate(167,227)"/>
<path d="M0 0 C0.99 1.32 1.98 2.64 3 4 C1.75 5.5625 1.75 5.5625 0 7 C-2.1875 6.6875 -2.1875 6.6875 -4 6 C-1.125 1.125 -1.125 1.125 0 0 Z " fill="#C13932" transform="translate(180,208)"/>
<path d="M0 0 C1.32 0 2.64 0 4 0 C4 0.99 4 1.98 4 3 C3.01 3 2.02 3 1 3 C1 3.66 1 4.32 1 5 C-0.98 5.66 -2.96 6.32 -5 7 C-4.67 6.01 -4.34 5.02 -4 4 C-3.01 4 -2.02 4 -1 4 C-0.67 2.68 -0.34 1.36 0 0 Z " fill="#EFBD73" transform="translate(273,318)"/>
<path d="M0 0 C-2.26969744 2.26969744 -3.97395487 2.99131829 -7 4 C-8.32 4 -9.64 4 -11 4 C-11 3.01 -11 2.02 -11 1 C-7.26562152 0.12132271 -3.83225427 -0.08912219 0 0 Z " fill="#ECBC8F" transform="translate(273,180)"/>
<path d="M0 0 C1.485 0.99 1.485 0.99 3 2 C3 2.66 3 3.32 3 4 C3.66 4 4.32 4 5 4 C5 5.32 5 6.64 5 8 C4.01 8.33 3.02 8.66 2 9 C1.34 6.03 0.68 3.06 0 0 Z " fill="#F19723" transform="translate(304,118)"/>
<path d="M0 0 C0.99 0 1.98 0 3 0 C1.94124926 3.40312738 0.99097846 6.01353231 -1 9 C-1.66 9 -2.32 9 -3 9 C-3 7.68 -3 6.36 -3 5 C-2.01 5 -1.02 5 0 5 C0 3.35 0 1.7 0 0 Z " fill="#F1C685" transform="translate(307,154)"/>
<path d="M0 0 C0.66 0.33 1.32 0.66 2 1 C1.67 1.66 1.34 2.32 1 3 C0.01 3 -0.98 3 -2 3 C-2.33 3.99 -2.66 4.98 -3 6 C-4.98 6 -6.96 6 -9 6 C-7.01388388 4.01388388 -5.55856751 3.08545288 -3 2 C-2.01 2 -1.02 2 0 2 C0 1.34 0 0.68 0 0 Z " fill="#EE962B" transform="translate(271,319)"/>
<path d="M0 0 C2.34914492 2.34914492 2.73140357 3.95679446 3.625 7.125 C3.88539063 8.03507812 4.14578125 8.94515625 4.4140625 9.8828125 C4.70410156 10.93082031 4.70410156 10.93082031 5 12 C2.69857565 10.21825212 1.19965609 8.83695835 0.51171875 5.953125 C0.27676898 3.9753389 0.13248542 1.98728128 0 0 Z " fill="#ECB671" transform="translate(221,305)"/>
<path d="M0 0 C-0.33 0.66 -0.66 1.32 -1 2 C-3.28515625 2.4140625 -3.28515625 2.4140625 -6.0625 2.625 C-6.98160156 2.69976562 -7.90070313 2.77453125 -8.84765625 2.8515625 C-9.55792969 2.90054688 -10.26820313 2.94953125 -11 3 C-7.74003139 -0.25996861 -4.40088745 -1.46696248 0 0 Z " fill="#E6B295" transform="translate(228,153)"/>
<path d="M0 0 C2.475 0.495 2.475 0.495 5 1 C4.01 1.495 4.01 1.495 3 2 C3 4.97 3 7.94 3 11 C2.67 11 2.34 11 2 11 C1.855625 9.9275 1.71125 8.855 1.5625 7.75 C1.16250558 5.08337051 0.72408076 2.58600271 0 0 Z " fill="#F5E6BE" transform="translate(291,104)"/>
<path d="M0 0 C2.25245881 2.68841859 3.88213958 4.64641875 5 8 C3.125 7.875 3.125 7.875 1 7 C-0.25 3.9375 -0.25 3.9375 -1 1 C-0.67 0.67 -0.34 0.34 0 0 Z " fill="#E99933" transform="translate(225,310)"/>
<path d="M0 0 C-6.4 3.07692308 -6.4 3.07692308 -9.4375 2.6875 C-9.953125 2.460625 -10.46875 2.23375 -11 2 C-10.67 1.34 -10.34 0.68 -10 0 C-6.18015204 -0.77811718 -3.73159669 -1.24386556 0 0 Z " fill="#ECBD96" transform="translate(262,185)"/>
<path d="M0 0 C0.33 0.99 0.66 1.98 1 3 C0.34 3 -0.32 3 -1 3 C-1 4.65 -1 6.3 -1 8 C-1.66 8 -2.32 8 -3 8 C-3.33 6.02 -3.66 4.04 -4 2 C-2.68 2 -1.36 2 0 2 C0 1.34 0 0.68 0 0 Z " fill="#F39525" transform="translate(308,151)"/>
<path d="M0 0 C0 0.99 0 1.98 0 3 C-2.31 3 -4.62 3 -7 3 C-4.49955934 -0.00052879 -4.2621484 0 0 0 Z " fill="#CF7979" transform="translate(234,202)"/>
<path d="M0 0 C1.98 0 3.96 0 6 0 C4.68 1.65 3.36 3.3 2 5 C1.01 4.67 0.02 4.34 -1 4 C-0.67 2.68 -0.34 1.36 0 0 Z " fill="#EF8421" transform="translate(281,170)"/>
</svg>
