<?xml version="1.0" encoding="UTF-8"?>
<svg version="1.1" xmlns="http://www.w3.org/2000/svg" width="1080" height="1080">
<path d="M0 0 C356.4 0 712.8 0 1080 0 C1080 356.4 1080 712.8 1080 1080 C723.6 1080 367.2 1080 0 1080 C0 723.6 0 367.2 0 0 Z " fill="#FEFEFE" transform="translate(0,0)"/>
<path d="M0 0 C14.67971199 4.29859795 24.65908717 16.70927949 31.82104492 29.60327148 C35.76729343 37.07480032 38.52228221 44.93957631 41 53 C41.36222656 54.15371094 41.72445313 55.30742187 42.09765625 56.49609375 C45.81756503 70.94093435 44.9752762 86.74126282 41 101 C40.81824219 101.75796875 40.63648438 102.5159375 40.44921875 103.296875 C37.13351896 115.29655043 29.56313293 127.1592152 20 135 C18.95005859 135.86238281 18.95005859 135.86238281 17.87890625 136.7421875 C6.09874429 145.60282925 -7.94700271 151.68808393 -21.375 157.5625 C-22.35557373 157.99216064 -23.33614746 158.42182129 -24.34643555 158.86450195 C-28.57690776 160.67914121 -32.44519091 162.21386769 -37 163 C-37.33 163.99 -37.66 164.98 -38 166 C-39.72265625 166.73828125 -39.72265625 166.73828125 -42.0625 167.3125 C-46.91676812 168.63830444 -51.60204689 170.24186934 -56.3125 172 C-56.9938501 172.24919189 -57.6752002 172.49838379 -58.37719727 172.75512695 C-61.28615788 173.84612128 -63.96742977 174.98017675 -66.625 176.59765625 C-69.31023013 178.18317865 -71.64555519 178.78362401 -74.6875 179.4375 C-79.48949905 180.47067706 -83.8037489 182.08842461 -88.33032227 183.94555664 C-93.56728965 186.01400311 -98.95563309 187.65276615 -104.3203125 189.35546875 C-108.29093251 190.64592025 -112.06899621 191.94779847 -115.75390625 193.921875 C-121.62569804 196.99573871 -128.01232226 198.7631951 -134.3125 200.75 C-135.59976849 201.16487121 -136.88687919 201.58023235 -138.17382812 201.99609375 C-147.59970671 205 -147.59970671 205 -151 205 C-151 205.66 -151 206.32 -151 207 C-151.79172607 207.25692627 -152.58345215 207.51385254 -153.39916992 207.77856445 C-156.35474111 208.74093915 -159.30843222 209.70883198 -162.26098633 210.68041992 C-164.16023575 211.30355473 -166.06155182 211.9203792 -167.96289062 212.53710938 C-169.7659668 213.13168945 -169.7659668 213.13168945 -171.60546875 213.73828125 C-172.71043701 214.09962158 -173.81540527 214.46096191 -174.95385742 214.83325195 C-177.89291844 215.95898511 -180.33185206 217.3490131 -183 219 C-185.4360837 219.8361017 -187.84189954 220.60018131 -190.3125 221.3125 C-196.82269945 223.26048735 -203.17510431 225.47936264 -209.50708008 227.94458008 C-212.56074955 229.12470564 -215.57886733 230.16426497 -218.73046875 231.05859375 C-221.34803625 231.81227806 -223.39638608 232.56863631 -225.75 233.875 C-228.83370836 235.49083951 -231.88997427 236.69737156 -235.1875 237.8125 C-254.89160392 244.81658673 -273.51819181 258.25547092 -283.05859375 277.08984375 C-285.37743218 282.51525999 -285.68866726 288.15982728 -286 294 C-286.66 294 -287.32 294 -288 294 C-297.43316395 274.65483128 -305.62444021 256.12637705 -305.4375 234.1875 C-305.43210205 232.96716064 -305.4267041 231.74682129 -305.42114258 230.48950195 C-305.05642585 208.77804481 -296.44266525 187.26291851 -282 171 C-281.41734375 170.28714844 -280.8346875 169.57429687 -280.234375 168.83984375 C-278.87608822 167.18154702 -277.44534337 165.58299512 -276 164 C-275.34 164 -274.68 164 -274 164 C-274 163.34 -274 162.68 -274 162 C-272.0430679 160.18372239 -270.09350161 158.52244144 -268 156.875 C-267.37786621 156.38507568 -266.75573242 155.89515137 -266.11474609 155.39038086 C-259.83019515 150.60947154 -253.08325256 147.16324653 -245.91894531 143.90283203 C-243.18550058 142.61679149 -240.52967183 141.18615319 -237.87255859 139.74975586 C-236 139 -236 139 -232 139 C-232 138.34 -232 137.68 -232 137 C-230.90498169 136.63032104 -230.90498169 136.63032104 -229.7878418 136.25317383 C-226.419047 135.11213472 -223.05328966 133.96237183 -219.6875 132.8125 C-217.96563477 132.23145508 -217.96563477 132.23145508 -216.20898438 131.63867188 C-210.87277578 129.80954655 -205.6684711 127.92023773 -200.56640625 125.5078125 C-194.61201792 122.7165064 -188.46136714 120.70218108 -182.20697021 118.6920166 C-172.50776213 115.57198316 -162.96643031 112.30006811 -153.5625 108.36328125 C-148.22007968 106.31886821 -142.74700822 104.77234562 -137.25708008 103.17651367 C-131.52741286 101.49848093 -126.00472279 99.53631714 -120.45703125 97.32421875 C-116.25930441 95.71627592 -112.01704794 94.28669808 -107.75 92.875 C-106.88890625 92.58963379 -106.0278125 92.30426758 -105.140625 92.01025391 C-100.77917083 90.56892482 -96.41517878 89.13543371 -92.04931641 87.70751953 C-88.44271876 86.52764965 -84.83829163 85.34130226 -81.23474121 84.15216064 C-79.81096601 83.683743 -78.3864286 83.21763443 -76.96105957 82.75408936 C-63.88101409 78.49953137 -51.20995063 73.69711991 -39.3125 66.6875 C-38.50651367 66.21675049 -37.70052734 65.74600098 -36.87011719 65.26098633 C-30.36437979 61.38095617 -24.66095846 57.04303693 -19 52 C-18.3503125 51.49210937 -17.700625 50.98421875 -17.03125 50.4609375 C-11.46943504 46.09442488 -7.1616696 40.32333921 -4 34 C-3.34 34 -2.68 34 -2 34 C-1.5196682 32.41701974 -1.04078388 30.83360022 -0.5625 29.25 C-0.29566406 28.36828125 -0.02882813 27.4865625 0.24609375 26.578125 C2.91458612 17.45271068 2.40503943 9.16921282 0 0 Z " fill="#DD6428" transform="translate(657,193)"/>
<path d="M0 0 C0.00238835 1.22436768 0.00477671 2.44873535 0.00723743 3.71020508 C0.06461684 32.78453675 0.13736129 61.85879749 0.22898628 90.93303996 C0.24025423 94.51281405 0.25139272 98.09258854 0.26245117 101.67236328 C0.26465486 102.38502173 0.26685854 103.09768018 0.269129 103.83193433 C0.30448614 115.36603493 0.3293592 126.90013547 0.35034702 138.43427014 C0.3721217 150.27236201 0.40518794 162.11038364 0.44870156 173.94841576 C0.47281482 180.59639318 0.49136787 187.24431217 0.49761391 193.89233398 C0.50365778 200.15004467 0.52363287 206.40755647 0.55427551 212.66519356 C0.56306684 214.96132591 0.56677606 217.25748424 0.56500816 219.55363274 C0.5633554 222.69085152 0.58005575 225.82746402 0.60127258 228.96459961 C0.59642501 229.87123352 0.59157743 230.77786743 0.58658296 231.7119751 C0.69004195 240.99452481 3.74413124 248.11547776 10 255 C17.28699482 260.99152907 25.37009933 262.61172551 34.63671875 262.4375 C39.35878623 261.82324732 43.27320808 260.15233926 47.5390625 258.09375 C50 257 50 257 53 257 C50.36657123 270.95717247 42.15919334 280.91429925 30.92578125 289.29296875 C11.36573024 302.11647082 -14.4161642 305.32273401 -37.359375 302.6015625 C-55.81891802 298.75998193 -70.33346361 287.1613325 -81.1015625 272.09765625 C-84.23081998 266.99168674 -86.17749064 261.68273214 -88 256 C-88.38027344 254.87980469 -88.76054687 253.75960937 -89.15234375 252.60546875 C-92.14594265 243.45421802 -93.15740398 234.91537654 -93.12025452 225.32493591 C-93.12110894 224.50053562 -93.12196337 223.67613532 -93.12284368 222.8267532 C-93.12447822 220.09077817 -93.1190106 217.35486577 -93.11352539 214.61889648 C-93.11324305 212.64715069 -93.11340216 210.67540479 -93.1139679 208.70365906 C-93.11425406 203.36964211 -93.10838658 198.03564778 -93.10139394 192.70163608 C-93.09513027 187.12027016 -93.09455422 181.53890368 -93.09336853 175.95753479 C-93.09026409 165.39678808 -93.08206267 154.83605176 -93.07201904 144.27530962 C-93.06083033 132.24872895 -93.05534051 120.22214778 -93.05032361 108.1955632 C-93.03987931 83.46370305 -93.02229707 58.73185211 -93 34 C-86.44840824 30.69374471 -86.44840824 30.69374471 -83.1171875 29.5703125 C-82.42367188 29.33183594 -81.73015625 29.09335937 -81.015625 28.84765625 C-79.95601563 28.48994141 -79.95601563 28.48994141 -78.875 28.125 C-73.96358065 26.46623761 -69.15730717 24.67179956 -64.3828125 22.6484375 C-56.71450325 19.41437449 -48.89020526 16.62231551 -41.06347656 13.80224609 C-33.48143869 11.06588594 -25.97889637 8.21048967 -18.5546875 5.06689453 C-15.57234199 3.82140047 -12.56553603 2.71074898 -9.5 1.6875 C-8.06140625 1.19830078 -8.06140625 1.19830078 -6.59375 0.69921875 C-4 0 -4 0 0 0 Z " fill="#DE6728" transform="translate(584,390)"/>
<path d="M0 0 C0 53.79 0 107.58 0 163 C-0.33 163 -0.66 163 -1 163 C-2.28971669 131.94689022 -2.12140652 100.87893656 -2.07202661 69.80630386 C-2.06063034 62.50219558 -2.05529617 55.19808611 -2.05032361 47.89397109 C-2.0400075 32.92930414 -2.02254143 17.96465392 -2 3 C-3.43934123 3.47550769 -4.8783173 3.95212082 -6.31713867 4.42919922 C-7.51919197 4.82714188 -7.51919197 4.82714188 -8.74552917 5.23312378 C-11.30954293 6.10529349 -13.81193257 7.08548424 -16.3125 8.125 C-20.30438304 9.78346348 -23.64798725 11 -28 11 C-27.67 10.01 -27.34 9.02 -27 8 C-24.83862305 6.92504883 -24.83862305 6.92504883 -22.01171875 5.95703125 C-20.99529297 5.60576172 -19.97886719 5.25449219 -18.93164062 4.89257812 C-17.86107422 4.53615234 -16.79050781 4.17972656 -15.6875 3.8125 C-14.09905273 3.26045898 -14.09905273 3.26045898 -12.47851562 2.69726562 C-4.55686167 0 -4.55686167 0 0 0 Z " fill="#B64534" transform="translate(584,390)"/>
<path d="M0 0 C-2.97021166 2.49248531 -5.43234937 3.58966045 -9.1875 4.5 C-17.80106012 6.65641323 -17.80106012 6.65641323 -26 10 C-25.99738159 11.13054306 -25.99476318 12.26108612 -25.99206543 13.42588806 C-25.91825189 48.94734241 -26.1488381 84.46380255 -26.44538212 119.98359716 C-26.5074528 127.42824851 -26.56716555 134.87291834 -26.62675762 142.31758988 C-26.74869742 157.54508053 -26.87335352 172.77254771 -27 188 C-27.33 188 -27.66 188 -28 188 C-28 128.6 -28 69.2 -28 8 C-6 0 -6 0 0 0 Z " fill="#C26342" transform="translate(520,415)"/>
<path d="M0 0 C11.82590984 10.75082712 17.40427259 25.08404262 22 40 C22.35707031 41.14082031 22.71414063 42.28164062 23.08203125 43.45703125 C26.83412282 57.93850809 25.92162105 73.69075175 22 88 C21.67 88 21.34 88 21 88 C20.97310784 86.52093108 20.95365379 85.04172517 20.9375 83.5625 C20.92589844 82.73878906 20.91429687 81.91507812 20.90234375 81.06640625 C21 79 21 79 22 78 C22.09974389 76.09715013 22.1308063 74.19061747 22.1328125 72.28515625 C22.13410156 71.12435547 22.13539063 69.96355469 22.13671875 68.76757812 C22.13091797 66.93356445 22.13091797 66.93356445 22.125 65.0625 C22.12886719 63.84369141 22.13273438 62.62488281 22.13671875 61.36914062 C22.13542969 60.20705078 22.13414062 59.04496094 22.1328125 57.84765625 C22.13168457 56.77523682 22.13055664 55.70281738 22.12939453 54.59790039 C22.17533698 52.0155356 22.17533698 52.0155356 21 50 C20.8462808 48.62791385 20.72575528 47.25198888 20.625 45.875 C19.90746699 38.89026458 17.1645811 33.20257896 14 27 C13.25909735 25.44303066 12.53057493 23.88012836 11.8125 22.3125 C11.46832031 21.56613281 11.12414062 20.81976563 10.76953125 20.05078125 C10 18 10 18 10 15 C9.34 15 8.68 15 8 15 C8 13.68 8 12.36 8 11 C7.34 11 6.68 11 6 11 C6 10.01 6 9.02 6 8 C4.68 7.67 3.36 7.34 2 7 C2 6.01 2 5.02 2 4 C1.34 4 0.68 4 0 4 C0 2.68 0 1.36 0 0 Z " fill="#EEAE60" transform="translate(676,206)"/>
<path d="M0 0 C0.66 0.33 1.32 0.66 2 1 C0.50260417 2.23697917 -0.99479167 3.47395833 -2.4921875 4.7109375 C-3.71051161 5.75250992 -4.86660097 6.86660097 -6 8 C-6.86625 8.350625 -7.7325 8.70125 -8.625 9.0625 C-13.4553027 11.83545155 -16.4454602 15.77466183 -20 20 C-21.18734409 21.29180999 -22.37483707 22.58348314 -23.5625 23.875 C-28.35814838 29.36519056 -33.468227 35.75889128 -35 43 C-35.433125 43.825 -35.86625 44.65 -36.3125 45.5 C-38.34459281 49.71471102 -39.66671795 54.02024778 -41.03515625 58.48828125 C-42 61 -42 61 -44 62 C-43.9108799 60.64475992 -43.80272007 59.290771 -43.6875 57.9375 C-43.62949219 57.18339844 -43.57148438 56.42929687 -43.51171875 55.65234375 C-42.84453517 52.19419375 -41.47721623 49.17160931 -40 46 C-39.71423096 45.37391846 -39.42846191 44.74783691 -39.1340332 44.1027832 C-35.00127777 35.17607652 -30.57362037 27.40211384 -24 20 C-23.12601562 18.93072266 -23.12601562 18.93072266 -22.234375 17.83984375 C-20.87608822 16.18154702 -19.44534337 14.58299512 -18 13 C-17.34 13 -16.68 13 -16 13 C-16 12.34 -16 11.68 -16 11 C-13.93095035 9.22610722 -11.86238831 7.5715553 -9.6875 5.9375 C-8.79514648 5.24817383 -8.79514648 5.24817383 -7.88476562 4.54492188 C-5.27844866 2.56179131 -3.12789942 1.04263314 0 0 Z " fill="#C04F4D" transform="translate(399,344)"/>
<path d="M0 0 C0.66 0 1.32 0 2 0 C-7.00027977 19.8611943 -40.25718595 30.7741227 -59 38 C-60.32676412 38.35858871 -61.65848151 38.70130778 -63 39 C-63 38.34 -63 37.68 -63 37 C-60.525 36.505 -60.525 36.505 -58 36 C-57.67 35.01 -57.34 34.02 -57 33 C-56.27554688 32.87367188 -55.55109375 32.74734375 -54.8046875 32.6171875 C-50.32137155 31.63060822 -46.2261437 29.76144092 -42 28 C-41.28457031 27.71640625 -40.56914063 27.4328125 -39.83203125 27.140625 C-36.24241851 25.87199358 -36.24241851 25.87199358 -34 23 C-32.68 23 -31.36 23 -30 23 C-29.67 22.34 -29.34 21.68 -29 21 C-26.18542367 19.52001748 -23.34114402 18.16234198 -20.45507812 16.83007812 C-16.0453209 14.7210638 -12.56778661 12.3645244 -9 9 C-8.67 8.01 -8.34 7.02 -8 6 C-6.68 6 -5.36 6 -4 6 C-4 5.34 -4 4.68 -4 4 C-3.34 4 -2.68 4 -2 4 C-2 3.34 -2 2.68 -2 2 C-1.34 2 -0.68 2 0 2 C0 1.34 0 0.68 0 0 Z " fill="#E6933B" transform="translate(684,317)"/>
<path d="M0 0 C1.98 0.33 3.96 0.66 6 1 C-7.05524039 9.70349359 -32.67459341 10.3474566 -47.9453125 7.32421875 C-50.67507244 6.6433921 -53.33848538 5.90880987 -56 5 C-56 4.01 -56 3.02 -56 2 C-53.03 2.495 -53.03 2.495 -50 3 C-50 3.66 -50 4.32 -50 5 C-29.97437844 5.22647628 -29.97437844 5.22647628 -10 4 C-10 3.34 -10 2.68 -10 2 C-7.03 2 -4.06 2 -1 2 C-0.67 1.34 -0.34 0.68 0 0 Z " fill="#E9942E" transform="translate(594,685)"/>
<path d="M0 0 C1.2065625 0.0309375 1.2065625 0.0309375 2.4375 0.0625 C0.3196574 2.1803426 -0.72883028 2.59525691 -3.51953125 3.46484375 C-4.30263672 3.71556641 -5.08574219 3.96628906 -5.89257812 4.22460938 C-7.53573734 4.73785423 -9.17896552 5.25087831 -10.82226562 5.76367188 C-15.13450032 7.14457586 -18.68427763 8.69742013 -22.5625 11.0625 C-24.998581 11.89860078 -27.40436549 12.66279947 -29.875 13.375 C-36.44930854 15.33940125 -42.85777681 17.59011222 -49.24536133 20.0949707 C-52.66415102 21.42020956 -55.93829916 22.48041038 -59.5625 23.0625 C-58.9025 22.7325 -58.2425 22.4025 -57.5625 22.0625 C-56.42899466 20.04580173 -56.42899466 20.04580173 -55.5625 18.0625 C-54.5725 18.3925 -53.5825 18.7225 -52.5625 19.0625 C-52.2325 18.4025 -51.9025 17.7425 -51.5625 17.0625 C-49.19140625 16.3515625 -49.19140625 16.3515625 -46.125 15.6875 C-41.33470157 14.55606641 -36.9442225 13.15067884 -32.41796875 11.23828125 C-27.99708393 9.41791691 -23.500578 7.79972858 -19.00683594 6.16870117 C-15.90956846 5.02591367 -13.32415681 3.90360454 -10.5625 2.0625 C-8.23335177 1.70108045 -5.89996522 1.36550475 -3.5625 1.0625 C-2.5625 0.0625 -2.5625 0.0625 0 0 Z " fill="#CA6851" transform="translate(496.5625,400.9375)"/>
<path d="M0 0 C-3.26956963 2.07851212 -6.31934903 3.56052133 -10 4.75 C-25.50096298 10.2503417 -38.11591426 19.86350317 -50 31 C-50 28 -50 28 -47.625 25.625 C-46.75875 24.75875 -45.8925 23.8925 -45 23 C-44.649375 22.0925 -44.29875 21.185 -43.9375 20.25 C-43 18 -43 18 -41 17.125 C-39 17 -39 17 -37 18 C-37 17.34 -37 16.68 -37 16 C-34 14 -34 14 -31 14 C-31 13.34 -31 12.68 -31 12 C-30.360625 11.87625 -29.72125 11.7525 -29.0625 11.625 C-28.381875 11.41875 -27.70125 11.2125 -27 11 C-26.67 10.34 -26.34 9.68 -26 9 C-25.01 9 -24.02 9 -23 9 C-23 8.34 -23 7.68 -23 7 C-22.236875 6.71125 -21.47375 6.4225 -20.6875 6.125 C-17.84970692 5.03730987 -17.84970692 5.03730987 -15 3 C-13.4935982 2.43879149 -11.97092271 1.92001028 -10.4375 1.4375 C-3.03167421 -0.90950226 -3.03167421 -0.90950226 0 0 Z " fill="#BB4640" transform="translate(432,426)"/>
<path d="M0 0 C0.66 0.33 1.32 0.66 2 1 C0.73130765 6.92056432 -1.13965435 11.66068812 -4 17 C-5.12377697 13.69564916 -4.89554742 11.9493138 -3.5625 8.75 C-3.13130859 7.69039062 -3.13130859 7.69039062 -2.69140625 6.609375 C-2.46324219 6.07828125 -2.23507812 5.5471875 -2 5 C-2.72703125 5.28875 -3.4540625 5.5775 -4.203125 5.875 C-11.69961266 8.6429339 -18.03654144 9.50830587 -26 9 C-26 8.34 -26 7.68 -26 7 C-25.20078125 6.98582031 -24.4015625 6.97164062 -23.578125 6.95703125 C-15.96988543 6.62662648 -5.747272 5.747272 0 0 Z " fill="#E99F4A" transform="translate(635,646)"/>
<path d="M0 0 C1.98 0 3.96 0 6 0 C6 0.66 6 1.32 6 2 C6.99 1.67 7.98 1.34 9 1 C10.32 2.98 11.64 4.96 13 7 C9 5 5 3 1 1 C1.2165625 1.52207031 1.433125 2.04414063 1.65625 2.58203125 C5.36325797 12.38157546 4.99264807 22.2730549 1 32 C-0.60546875 33.8125 -0.60546875 33.8125 -2 35 C-2 33.35 -2 31.7 -2 30 C-1.34 30 -0.68 30 0 30 C0 28.02 0 26.04 0 24 C0.66 24 1.32 24 2 24 C1.85978195 21.35375716 1.71310224 18.70815422 1.5625 16.0625 C1.52318359 15.30775391 1.48386719 14.55300781 1.44335938 13.77539062 C1.55961976 10.08055813 1.55961976 10.08055813 0 7 C-0.04092937 4.66702567 -0.04241723 2.33294775 0 0 Z " fill="#FCE4BC" transform="translate(656,192)"/>
<path d="M0 0 C1.32 0.33 2.64 0.66 4 1 C3.95875 1.825 3.9175 2.65 3.875 3.5 C3.86684275 7.09693237 3.86684275 7.09693237 5.0625 10.8125 C6.31974 15.35790616 5.78714892 19.40475223 5 24 C4.34 24 3.68 24 3 24 C3.268125 24.53625 3.53625 25.0725 3.8125 25.625 C4.04522311 28.57282601 3.4200144 29.04811495 1.5625 31.25 C0.2940625 32.61125 0.2940625 32.61125 -1 34 C-1 30.92480362 -0.41545491 28.91589341 0.5 26 C3.01456921 16.96661867 2.35607085 8.98252013 0 0 Z " fill="#EB9935" transform="translate(657,193)"/>
<path d="M0 0 C0.66 0 1.32 0 2 0 C1.33333333 1.66666667 0.66666667 3.33333333 0 5 C-0.28875 5.763125 -0.5775 6.52625 -0.875 7.3125 C-1.78530471 9.48711681 -2.77578476 11.48429618 -3.875 13.5625 C-6.17865344 18.04946678 -7.61131631 22.74149475 -9.0703125 27.55859375 C-10 30 -10 30 -12 31 C-11.9108799 29.64475992 -11.80272007 28.290771 -11.6875 26.9375 C-11.62949219 26.18339844 -11.57148438 25.42929687 -11.51171875 24.65234375 C-10.35116517 18.63695537 -7.11372404 13.06763379 -4.375 7.625 C-4.06304687 6.99722656 -3.75109375 6.36945313 -3.4296875 5.72265625 C-1.12679248 1.12679248 -1.12679248 1.12679248 0 0 Z " fill="#B63B3E" transform="translate(367,375)"/>
<path d="M0 0 C9.27643398 8.4331218 17.29289648 20.27213668 18 33 C14.02223292 29.02223292 12.05486271 23.18608208 10 18 C10 17.01 10 16.02 10 15 C9.34 15 8.68 15 8 15 C8 13.68 8 12.36 8 11 C7.34 11 6.68 11 6 11 C6 10.01 6 9.02 6 8 C4.68 7.67 3.36 7.34 2 7 C2 6.01 2 5.02 2 4 C1.34 4 0.68 4 0 4 C0 2.68 0 1.36 0 0 Z " fill="#EEA955" transform="translate(676,206)"/>
<path d="M0 0 C2 0 2 0 4.1875 2.125 C4.62191406 2.57875 5.05632813 3.0325 5.50390625 3.5 C7.66611813 5.66785734 10.00514372 7.60611579 12.3515625 9.5703125 C14 11 14 11 15.46484375 12.546875 C17.18079484 14.17113405 18.81743148 15.09141573 20.9375 16.125 C21.60652344 16.45757813 22.27554688 16.79015625 22.96484375 17.1328125 C24.9623573 17.98396031 26.88239788 18.53573824 29 19 C29 19.66 29 20.32 29 21 C18.44636891 20.44454573 10.18805083 11.92426915 3 5 C2.11634766 4.18595703 2.11634766 4.18595703 1.21484375 3.35546875 C0 2 0 2 0 0 Z " fill="#EC9B38" transform="translate(508,667)"/>
<path d="M0 0 C2 1 2 1 2.78125 3.109375 C3.0184375 3.98078125 3.255625 4.8521875 3.5 5.75 C4.25608203 8.43618089 4.99310285 10.9833657 6.0625 13.5625 C7.26064747 16.67768343 7.779716 19.82474238 8.33984375 23.109375 C8.55769531 23.73328125 8.77554687 24.3571875 9 25 C9.99 25.33 10.98 25.66 12 26 C13.75 28.9375 13.75 28.9375 15 32 C14.67 32.66 14.34 33.32 14 34 C9.42001341 28.36309343 6.16799459 22.63946045 3.625 15.875 C3.37476074 15.21886719 3.12452148 14.56273437 2.86669922 13.88671875 C1.2066763 9.2631108 0.46821003 4.88898376 0 0 Z " fill="#E89235" transform="translate(493,633)"/>
<path d="M0 0 C0.66 0 1.32 0 2 0 C1.287303 4.63253052 -1.35230397 8.41332974 -4.6875 11.625 C-6.30693062 13.32154637 -6.6068087 14.71949044 -7 17 C-8.65 17 -10.3 17 -12 17 C-12.33 17.99 -12.66 18.98 -13 20 C-13.66 20 -14.32 20 -15 20 C-15 20.66 -15 21.32 -15 22 C-15.99 21.67 -16.98 21.34 -18 21 C-17.03900391 20.19949219 -17.03900391 20.19949219 -16.05859375 19.3828125 C-9.50681075 13.73910076 -3.90065478 7.80130955 0 0 Z " fill="#EB9B3F" transform="translate(653,227)"/>
<path d="M0 0 C2.15390087 2.61545105 4.12392102 5.19587515 5.9375 8.0625 C10.5993817 14.7021497 16.54706291 16.5461433 24 19 C24 19.33 24 19.66 24 20 C21.69 20 19.38 20 17 20 C17 19.34 17 18.68 17 18 C16.29875 17.9175 15.5975 17.835 14.875 17.75 C9.17311993 16.26255302 5.23172043 12.84758064 2 8 C2 7.01 2 6.02 2 5 C1.34 5 0.68 5 0 5 C0 3.35 0 1.7 0 0 Z " fill="#EAA04F" transform="translate(585,633)"/>
<path d="M0 0 C0.99 0.33 1.98 0.66 3 1 C-2.62705954 7.77005601 -8.88322487 15.18034111 -17 19 C-17.66 18.67 -18.32 18.34 -19 18 C-17.68 17.34 -16.36 16.68 -15 16 C-15 15.34 -15 14.68 -15 14 C-14.01 14 -13.02 14 -12 14 C-12 13.34 -12 12.68 -12 12 C-11.34 12 -10.68 12 -10 12 C-9.62875 10.7934375 -9.62875 10.7934375 -9.25 9.5625 C-8.8375 8.716875 -8.425 7.87125 -8 7 C-6.67696283 6.6278958 -5.34262065 6.29369827 -4 6 C-2.71563266 4.0162233 -2.71563266 4.0162233 -2 2 C-1.34 2 -0.68 2 0 2 C0 1.34 0 0.68 0 0 Z " fill="#EE9B36" transform="translate(627,663)"/>
<path d="M0 0 C-2.36012878 2.7083445 -4.59993115 3.85019927 -7.9375 5.125 C-8.79214844 5.45757812 -9.64679687 5.79015625 -10.52734375 6.1328125 C-13.84207024 7.29532321 -16.47368223 8 -20 8 C-19 5 -19 5 -17.35766602 4.09277344 C-16.31630493 3.72974121 -16.31630493 3.72974121 -15.25390625 3.359375 C-14.12178711 2.96105469 -14.12178711 2.96105469 -12.96679688 2.5546875 C-12.17337891 2.28914063 -11.37996094 2.02359375 -10.5625 1.75 C-9.77294922 1.46898437 -8.98339844 1.18796875 -8.16992188 0.8984375 C-2.26833039 -1.13416519 -2.26833039 -1.13416519 0 0 Z " fill="#BE4C56" transform="translate(576,393)"/>
<path d="M0 0 C2.97 0.495 2.97 0.495 6 1 C6 1.66 6 2.32 6 3 C14.58 3.66 23.16 4.32 32 5 C32 5.33 32 5.66 32 6 C10.46808511 6.57446809 10.46808511 6.57446809 0 3 C0 2.01 0 1.02 0 0 Z " fill="#F1AB55" transform="translate(538,687)"/>
<path d="M0 0 C1.2065625 0.0309375 1.2065625 0.0309375 2.4375 0.0625 C-1.21349999 3.71349999 -6.67477761 4.65089507 -11.5 6.25 C-12.61052734 6.63091797 -13.72105469 7.01183594 -14.86523438 7.40429688 C-15.92935547 7.75943359 -16.99347656 8.11457031 -18.08984375 8.48046875 C-19.55538696 8.97196411 -19.55538696 8.97196411 -21.05053711 9.47338867 C-23.5625 10.0625 -23.5625 10.0625 -26.5625 9.0625 C-25.65886719 8.72476562 -24.75523437 8.38703125 -23.82421875 8.0390625 C-22.64472656 7.59304688 -21.46523438 7.14703125 -20.25 6.6875 C-18.49236328 6.02621094 -18.49236328 6.02621094 -16.69921875 5.3515625 C-13.47696407 4.14760352 -13.47696407 4.14760352 -10.5625 2.0625 C-8.23335177 1.70108045 -5.89996522 1.36550475 -3.5625 1.0625 C-2.5625 0.0625 -2.5625 0.0625 0 0 Z " fill="#C55C3B" transform="translate(496.5625,400.9375)"/>
<path d="M0 0 C0.66 0 1.32 0 2 0 C-1.74996007 8.27515226 -9.65302848 13.13651181 -17 18 C-17 17.01 -17 16.02 -17 15 C-15.28515625 13.5 -15.28515625 13.5 -13.0625 12 C-9.62594582 9.74606985 -9.62594582 9.74606985 -8 6 C-6.68 6 -5.36 6 -4 6 C-4 5.34 -4 4.68 -4 4 C-3.34 4 -2.68 4 -2 4 C-2 3.34 -2 2.68 -2 2 C-1.34 2 -0.68 2 0 2 C0 1.34 0 0.68 0 0 Z " fill="#EC9B3B" transform="translate(684,317)"/>
<path d="M0 0 C0.66 0 1.32 0 2 0 C0.68277405 5.38676087 -1.283722 9.69367013 -4.125 14.4375 C-4.49753906 15.07365234 -4.87007812 15.70980469 -5.25390625 16.36523438 C-6.16234499 17.91423889 -7.08019297 19.45771891 -8 21 C-8.6015625 19.1953125 -8.6015625 19.1953125 -9 17 C-8.1340703 15.33475058 -7.25040207 13.67503339 -6.2578125 12.08203125 C-3.91050263 8.19657734 -1.99932985 4.07240546 0 0 Z " fill="#EC9E3E" transform="translate(695,296)"/>
<path d="M0 0 C3.367411 2.89971503 4.02149536 5.8647865 5.15625 10.0390625 C5.4346875 10.68617188 5.713125 11.33328125 6 12 C6.99 12.33 7.98 12.66 9 13 C9.33 15.64 9.66 18.28 10 21 C7 20 7 20 6.0168457 18.26586914 C5.73929443 17.52973389 5.46174316 16.79359863 5.17578125 16.03515625 C4.86962891 15.23529297 4.56347656 14.43542969 4.24804688 13.61132812 C3.93931641 12.77021484 3.63058594 11.92910156 3.3125 11.0625 C2.83200195 9.80663086 2.83200195 9.80663086 2.34179688 8.52539062 C0 2.31887993 0 2.31887993 0 0 Z " fill="#B32835" transform="translate(357,457)"/>
<path d="M0 0 C-2.67608418 3.43087716 -5.83982728 4.03286058 -9.9375 5.125 C-11.16339844 5.45757812 -12.38929688 5.79015625 -13.65234375 6.1328125 C-14.75707031 6.41898437 -15.86179687 6.70515625 -17 7 C-17.72316406 7.22429687 -18.44632812 7.44859375 -19.19140625 7.6796875 C-21.385208 8.06822258 -22.87273829 7.58624239 -25 7 C-21.77540728 5.82041306 -18.54466564 4.65865869 -15.3125 3.5 C-14.40048828 3.16613281 -13.48847656 2.83226562 -12.54882812 2.48828125 C-11.66259766 2.17246094 -10.77636719 1.85664063 -9.86328125 1.53125 C-9.05157471 1.23798828 -8.23986816 0.94472656 -7.40356445 0.64257812 C-4.83817335 -0.04326336 -2.64338181 -0.11519796 0 0 Z " fill="#C8654C" transform="translate(461,319)"/>
<path d="M0 0 C0.33 0 0.66 0 1 0 C2.19344012 5.32494528 2.18391006 10.43982792 2.1875 15.875 C2.19974609 16.84308594 2.21199219 17.81117188 2.22460938 18.80859375 C2.23577199 24.27827425 1.82076216 28.83277774 0 34 C-0.33 34 -0.66 34 -1 34 C-1.02689216 32.52093108 -1.04634621 31.04172517 -1.0625 29.5625 C-1.07410156 28.73878906 -1.08570313 27.91507812 -1.09765625 27.06640625 C-1 25 -1 25 0 24 C0.08726223 22.21928754 0.10699041 20.4351686 0.09765625 18.65234375 C0.09443359 17.57275391 0.09121094 16.49316406 0.08789062 15.38085938 C0.07951172 14.24455078 0.07113281 13.10824219 0.0625 11.9375 C0.05798828 10.79732422 0.05347656 9.65714844 0.04882812 8.48242188 C0.03699747 5.65489649 0.0205141 2.8274736 0 0 Z " fill="#EC9F41" transform="translate(698,260)"/>
<path d="M0 0 C0 0.66 0 1.32 0 2 C-0.86625 2.268125 -1.7325 2.53625 -2.625 2.8125 C-5.99435942 3.88136574 -5.99435942 3.88136574 -8.8125 5.625 C-12.97946998 7.42251646 -16.53088987 7.26814661 -21 7 C-17.49415743 4.66277162 -13.92449951 3.58766828 -9.9375 2.375 C-9.20466797 2.14554687 -8.47183594 1.91609375 -7.71679688 1.6796875 C-2.27280971 0 -2.27280971 0 0 0 Z " fill="#DD8544" transform="translate(579,277)"/>
<path d="M0 0 C0 0.66 0 1.32 0 2 C-4.47058824 6 -4.47058824 6 -7 6 C-8.11375 6.515625 -9.2275 7.03125 -10.375 7.5625 C-14.01814246 9.00719442 -14.56380125 9.14287668 -18 8 C-15.3773768 6.66180502 -12.75213401 5.3292849 -10.125 4 C-9.00544922 3.42765625 -9.00544922 3.42765625 -7.86328125 2.84375 C-7.14785156 2.4828125 -6.43242188 2.121875 -5.6953125 1.75 C-5.03547363 1.41484375 -4.37563477 1.0796875 -3.69580078 0.734375 C-2 0 -2 0 0 0 Z " fill="#E8974B" transform="translate(619,260)"/>
<path d="M0 0 C-0.96099609 0.38091797 -0.96099609 0.38091797 -1.94140625 0.76953125 C-2.80636719 1.11371094 -3.67132812 1.45789063 -4.5625 1.8125 C-5.47386719 2.1734375 -6.38523437 2.534375 -7.32421875 2.90625 C-9.54585405 3.8143637 -11.70467306 4.79116967 -13.875 5.8125 C-16.9390247 6.97682939 -18.05404796 7.2962189 -21 6 C-16.375 3 -16.375 3 -13 3 C-13 2.34 -13 1.68 -13 1 C-11.58622218 0.63447197 -10.16879424 0.28304505 -8.75 -0.0625 C-7.96109375 -0.25972656 -7.1721875 -0.45695312 -6.359375 -0.66015625 C-3.89605178 -1.01497267 -2.34395868 -0.76877544 0 0 Z " fill="#E1945A" transform="translate(602,365)"/>
<path d="M0 0 C-4.625 3 -4.625 3 -8 3 C-8.33 3.99 -8.66 4.98 -9 6 C-10.0725 6.144375 -11.145 6.28875 -12.25 6.4375 C-14.91662949 6.83749442 -17.41399729 7.27591924 -20 8 C-17.38511618 4.07767427 -14.25660564 3.28297336 -10 1.75 C-9.26265625 1.46898437 -8.5253125 1.18796875 -7.765625 0.8984375 C-2.26116071 -1.13058036 -2.26116071 -1.13058036 0 0 Z " fill="#D57952" transform="translate(506,302)"/>
<path d="M0 0 C1.32 0.66 2.64 1.32 4 2 C-2.435 7.94 -2.435 7.94 -9 14 C-9 11 -9 11 -6.625 8.625 C-5.75875 7.75875 -4.8925 6.8925 -4 6 C-3.28837557 4.35202764 -2.60968047 2.68834592 -2 1 C-1.34 0.67 -0.68 0.34 0 0 Z " fill="#BA3839" transform="translate(391,443)"/>
<path d="M0 0 C-1.32 0.33 -2.64 0.66 -4 1 C-4 1.66 -4 2.32 -4 3 C-8.74354436 5.22656164 -12.72250715 6.46148032 -18 7 C-16.75 5.5 -16.75 5.5 -15 4 C-13.68 4 -12.36 4 -11 4 C-11 3.34 -11 2.68 -11 2 C-9.54494642 1.47007308 -8.08581873 0.9513211 -6.625 0.4375 C-5.40683594 0.00244141 -5.40683594 0.00244141 -4.1640625 -0.44140625 C-2 -1 -2 -1 0 0 Z " fill="#CC6C59" transform="translate(436,328)"/>
<path d="M0 0 C0.66 0 1.32 0 2 0 C0.53417985 3.42280517 -1.38062255 5.56480483 -4.0625 8.125 C-6.91571933 10.77905 -6.91571933 10.77905 -9 14 C-9.66 14 -10.32 14 -11 14 C-9.57442379 10.82096506 -7.8226848 8.46341568 -5.5 5.875 C-4.8915625 5.19179688 -4.283125 4.50859375 -3.65625 3.8046875 C-2.46695076 2.50880012 -1.24373566 1.24373566 0 0 Z " fill="#F6D4D4" transform="translate(389,449)"/>
<path d="M0 0 C3 1 3 1 4.1328125 2.56640625 C6.5660728 7.46166615 7.61019337 11.54270714 8 17 C3.45396916 12.45396916 1.87920059 5.9974487 0 0 Z " fill="#ED9E3E" transform="translate(686,222)"/>
<path d="M0 0 C1.1875 1.5625 1.1875 1.5625 2 4 C0.75 7.4375 0.75 7.4375 -1 11 C-1.67276716 12.6642135 -2.34206835 14.32986582 -3 16 C-3.33 16 -3.66 16 -4 16 C-3.6083965 10.04492601 -2.62875405 5.37180176 0 0 Z " fill="#BF444C" transform="translate(359,390)"/>
<path d="M0 0 C1.86680725 3.41407092 2.99246672 6.90861303 4.125 10.625 C4.47820312 11.77226563 4.83140625 12.91953125 5.1953125 14.1015625 C6 17 6 17 6 19 C5.34 19 4.68 19 4 19 C3.79503906 18.36191406 3.59007812 17.72382812 3.37890625 17.06640625 C3.10949219 16.24011719 2.84007812 15.41382813 2.5625 14.5625 C2.29566406 13.73878906 2.02882813 12.91507813 1.75390625 12.06640625 C1.17844506 10.03780412 1.17844506 10.03780412 0 9 C-0.07179964 7.48071962 -0.08392007 5.95832518 -0.0625 4.4375 C-0.05347656 3.61121094 -0.04445313 2.78492188 -0.03515625 1.93359375 C-0.02355469 1.29550781 -0.01195312 0.65742187 0 0 Z " fill="#FCDCB3" transform="translate(492,633)"/>
<path d="M0 0 C-3.732388 3.57011026 -8.0949989 4.10913442 -13 5 C-12.67 4.01 -12.34 3.02 -12 2 C-7.9083139 0.19204568 -4.44280672 -0.21156222 0 0 Z " fill="#B9393A" transform="translate(520,415)"/>
<path d="M0 0 C0.66 0.33 1.32 0.66 2 1 C0.50260417 2.23697917 -0.99479167 3.47395833 -2.4921875 4.7109375 C-3.71051161 5.75250992 -4.86660097 6.86660097 -6 8 C-8.125 8.625 -8.125 8.625 -10 9 C-8.50521886 5.19510255 -6.30557786 3.33809165 -3 1 C-2.01 0.67 -1.02 0.34 0 0 Z " fill="#BE443C" transform="translate(399,344)"/>
<path d="M0 0 C5.27112904 2.79692561 9.59398317 5.98235547 14 10 C13.01 10.33 12.02 10.66 11 11 C10.34 9.68 9.68 8.36 9 7 C7.68 7 6.36 7 5 7 C2.25 4.625 2.25 4.625 0 2 C0 1.34 0 0.68 0 0 Z " fill="#EC9E41" transform="translate(662,195)"/>
<path d="M0 0 C5.44876003 1.72066106 10.71169451 3.84705349 16 6 C16 6.66 16 7.32 16 8 C9.78310074 7.67279478 4.99100726 4.47200505 0 1 C0 0.67 0 0.34 0 0 Z " fill="#EDA147" transform="translate(521,680)"/>
<path d="M0 0 C0 0.66 0 1.32 0 2 C-5.84560277 4.63463787 -10.54487966 6.56131481 -17 6 C-13.87247409 4.35471386 -10.6946943 3.08297501 -7.375 1.875 C-6.41335938 1.52179688 -5.45171875 1.16859375 -4.4609375 0.8046875 C-2 0 -2 0 0 0 Z " fill="#E08D4A" transform="translate(596,271)"/>
<path d="M0 0 C0 0.66 0 1.32 0 2 C-2.58535679 3.72357119 -4.03811614 4.44735018 -6.9375 5.1875 C-7.60652344 5.36667969 -8.27554687 5.54585938 -8.96484375 5.73046875 C-11.24680888 6.03268678 -12.82026659 5.68756692 -15 5 C-12.8765984 4.16260219 -10.7512272 3.33019717 -8.625 2.5 C-7.44164062 2.0359375 -6.25828125 1.571875 -5.0390625 1.09375 C-2 0 -2 0 0 0 Z " fill="#BE5553" transform="translate(507,418)"/>
<path d="M0 0 C-1.44626119 3.81287042 -3.30194812 5.32707177 -7 7 C-9.1640625 6.57421875 -9.1640625 6.57421875 -11 6 C-9.54550599 4.9944239 -8.08627557 3.99569565 -6.625 3 C-5.40683594 2.1646875 -5.40683594 2.1646875 -4.1640625 1.3125 C-2 0 -2 0 0 0 Z " fill="#E79845" transform="translate(630,253)"/>
<path d="M0 0 C0.66 0.33 1.32 0.66 2 1 C1.04663979 2.31611677 0.08714226 3.62778961 -0.875 4.9375 C-1.40867187 5.66839844 -1.94234375 6.39929688 -2.4921875 7.15234375 C-4 9 -4 9 -6 10 C-6 8.68 -6 7.36 -6 6 C-5.34 6 -4.68 6 -4 6 C-4 5.34 -4 4.68 -4 4 C-3.34 4 -2.68 4 -2 4 C-1.34 2.68 -0.68 1.36 0 0 Z " fill="#FEEDD2" transform="translate(647,233)"/>
<path d="M0 0 C0.66 0 1.32 0 2 0 C2.103125 0.639375 2.20625 1.27875 2.3125 1.9375 C2.539375 2.618125 2.76625 3.29875 3 4 C3.99 4.33 4.98 4.66 6 5 C7.75 7.9375 7.75 7.9375 9 11 C8.67 11.66 8.34 12.32 8 13 C6.84962529 11.3990869 5.70485184 9.79414775 4.5625 8.1875 C3.92441406 7.29417969 3.28632813 6.40085937 2.62890625 5.48046875 C1 3 1 3 0 0 Z " fill="#EB9E42" transform="translate(499,654)"/>
<path d="M0 0 C-0.7109375 1.953125 -0.7109375 1.953125 -2 4 C-4.1640625 4.609375 -4.1640625 4.609375 -6.625 4.75 C-7.44226563 4.80671875 -8.25953125 4.8634375 -9.1015625 4.921875 C-9.72804688 4.94765625 -10.35453125 4.9734375 -11 5 C-7.72709962 2.33319229 -4.35126896 0 0 0 Z " fill="#C4584A" transform="translate(417,335)"/>
<path d="M0 0 C0.99 0.33 1.98 0.66 3 1 C2.67 3.31 2.34 5.62 2 8 C1.34 6.68 0.68 5.36 0 4 C-0.99 4.33 -1.98 4.66 -3 5 C-3 4.01 -3 3.02 -3 2 C-2.01 2 -1.02 2 0 2 C0 1.34 0 0.68 0 0 Z " fill="#FDE8C7" transform="translate(635,643)"/>
<path d="M0 0 C1.98 0 3.96 0 6 0 C3.68118495 2.67901932 1.68185532 3.66204403 -1.6875 4.6875 C-2.89986328 5.06455078 -2.89986328 5.06455078 -4.13671875 5.44921875 C-5.05904297 5.72185547 -5.05904297 5.72185547 -6 6 C-6 5.34 -6 4.68 -6 4 C-4.35 3.67 -2.7 3.34 -1 3 C-0.67 2.01 -0.34 1.02 0 0 Z " fill="#E28735" transform="translate(627,350)"/>
<path d="M0 0 C1.1171875 1.703125 1.1171875 1.703125 2 4 C1.3203125 6.359375 1.3203125 6.359375 0.125 8.75 C-0.26429688 9.54921875 -0.65359375 10.3484375 -1.0546875 11.171875 C-1.36664062 11.77515625 -1.67859375 12.3784375 -2 13 C-3.18771723 9.57056481 -2.80226223 7.62215325 -1.5625 4.25 C-1.27503906 3.45078125 -0.98757813 2.6515625 -0.69140625 1.828125 C-0.46324219 1.22484375 -0.23507812 0.6215625 0 0 Z " fill="#EC9937" transform="translate(633,650)"/>
<path d="M0 0 C-1 2 -1 2 -3.875 3.1875 C-7 4 -7 4 -10 3 C-6.48812804 0.59185923 -4.27343092 -0.36629408 0 0 Z " fill="#B6363C" transform="translate(545,405)"/>
<path d="M0 0 C-3.3340947 2.19097652 -6.04179141 3.43454163 -10 4 C-9 1 -9 1 -6.6875 -0.25 C-3.90126985 -1.0275526 -2.66561622 -0.98726527 0 0 Z " fill="#C66053" transform="translate(432,426)"/>
<path d="M0 0 C0.33 0 0.66 0 1 0 C1 2.64 1 5.28 1 8 C0.34 8 -0.32 8 -1 8 C-1.66 6.02 -2.32 4.04 -3 2 C-2.34 2 -1.68 2 -1 2 C-0.67 1.34 -0.34 0.68 0 0 Z " fill="#B03841" transform="translate(369,477)"/>
<path d="M0 0 C0.66 0 1.32 0 2 0 C0.50163895 3.11198065 -1.19933758 6.0534615 -3 9 C-3.33 7.68 -3.66 6.36 -4 5 C-3.34 5 -2.68 5 -2 5 C-1.7834375 4.0409375 -1.7834375 4.0409375 -1.5625 3.0625 C-1 1 -1 1 0 0 Z " fill="#B53B40" transform="translate(379,457)"/>
<path d="M0 0 C1.65 0.33 3.3 0.66 5 1 C2.75 3.0625 2.75 3.0625 0 5 C-2.3125 4.75 -2.3125 4.75 -4 4 C-3.34 4 -2.68 4 -2 4 C-1.34 2.68 -0.68 1.36 0 0 Z " fill="#CB6453" transform="translate(441,419)"/>
<path d="M0 0 C2.31 0 4.62 0 7 0 C6.01 1.485 6.01 1.485 5 3 C1.875 3.1875 1.875 3.1875 -1 3 C-0.67 2.01 -0.34 1.02 0 0 Z " fill="#C03E45" transform="translate(557,398)"/>
<path d="M0 0 C-2.06756277 2.7972908 -3.14440371 3.02692273 -6.6875 3.6875 C-7.780625 3.790625 -8.87375 3.89375 -10 4 C-10 3.34 -10 2.68 -10 2 C-6.49223216 0.39644899 -3.85645121 -0.22036864 0 0 Z " fill="#C65737" transform="translate(461,319)"/>
<path d="M0 0 C0.66 0 1.32 0 2 0 C1.45773019 3.79588866 -0.20127563 5.47211993 -3 8 C-3.66 7.67 -4.32 7.34 -5 7 C-4.360625 6.21625 -3.72125 5.4325 -3.0625 4.625 C-1.01857687 2.20460719 -1.01857687 2.20460719 0 0 Z " fill="#F1AA54" transform="translate(653,227)"/>
<path d="M0 0 C-2.76223278 2.76223278 -5.20706617 2.57856291 -9 3 C-6.27596221 -1.08605669 -4.4643819 -1.38549783 0 0 Z " fill="#B6323A" transform="translate(555,402)"/>
<path d="M0 0 C1.65 1.65 3.3 3.3 5 5 C4.67 5.99 4.34 6.98 4 8 C3.34 7.67 2.68 7.34 2 7 C2 6.01 2 5.02 2 4 C1.34 4 0.68 4 0 4 C0 2.68 0 1.36 0 0 Z " fill="#EF9F40" transform="translate(676,206)"/>
</svg>
